<svg width="104" height="60" viewBox="0 0 104 60" fill="none" xmlns="http://www.w3.org/2000/svg">
<path d="M52.1881 44.8874C60.2788 34.513 68.3335 24.1832 76.4298 13.8007C76.2672 13.7906 76.1726 13.7785 76.0781 13.7785C71.2377 13.7785 66.3973 13.7745 61.5569 13.7785C60.8309 13.7785 60.2428 13.5158 59.876 12.8308C59.1897 11.5557 60.0235 10.0099 61.4019 10.0058C64.1 9.99574 66.7963 10.0018 69.4944 10.0018C73.0358 10.0018 76.5792 10.0018 80.1206 10.0018C81.2607 10.0018 81.9981 10.7778 82 11.9821C82 18.61 82 25.238 82 31.8659C82 32.7712 81.5916 33.4623 80.892 33.7573C80.2038 34.0483 79.4153 33.8563 78.918 33.2683C78.589 32.8803 78.4643 32.4176 78.4643 31.8962C78.4699 27.1819 78.468 22.4656 78.468 17.7512C78.468 17.5916 78.468 17.432 78.468 17.1491C78.3168 17.3208 78.226 17.4138 78.1466 17.5168C74.9512 21.6128 71.7577 25.7108 68.5623 29.8068C63.875 35.8164 59.1859 41.828 54.4987 47.8376C54.1432 48.2923 53.7953 48.753 53.4361 49.2056C52.536 50.3413 51.1709 50.2463 50.4241 48.9894C47.6389 44.3074 44.8595 39.6214 42.0782 34.9374C40.7471 32.6984 39.416 30.4595 38.0849 28.2205C38.0262 28.1215 37.9582 28.0286 37.8674 27.8912C37.372 28.7176 36.8974 29.5077 36.4266 30.2999C32.7264 36.5297 29.0261 42.7616 25.324 48.9915C24.7284 49.9917 23.6809 50.2827 22.8112 49.6987C21.9395 49.1147 21.7448 47.9589 22.3517 46.9364C26.2807 40.3186 30.2117 33.7027 34.1426 27.0849C34.8592 25.8806 35.572 24.6722 36.2905 23.4699C37.1168 22.0857 38.6388 22.0877 39.4632 23.4759C43.6248 30.4777 47.7845 37.4815 51.9442 44.4853C52.0104 44.5984 52.0823 44.7075 52.1919 44.8874H52.1881Z" fill="#F13535"/>
</svg>
