<svg width="102" height="60" viewBox="0 0 102 60" fill="none" xmlns="http://www.w3.org/2000/svg">
<path d="M76.4366 46.1571C68.3723 35.8055 60.3058 25.4561 52.1996 15.0529C51.9043 15.5434 51.6342 15.9913 51.3682 16.4415C47.3894 23.1448 43.4128 29.8502 39.4298 36.549C38.6298 37.895 37.1388 37.904 36.3347 36.5557C34.0354 32.7058 31.7528 28.8424 29.4619 24.9857C27.1479 21.0932 24.836 17.203 22.52 13.3127C22.2121 12.7954 21.9211 12.2803 22.0195 11.624C22.143 10.8066 22.654 10.2131 23.3974 10.0473C24.124 9.88384 24.8151 10.1907 25.2255 10.876C26.9385 13.7517 28.6494 16.6296 30.3582 19.5098C32.8062 23.6285 35.2521 27.7472 37.698 31.8659C37.744 31.9421 37.7964 32.0137 37.8822 32.1436C38.1168 31.7607 38.3325 31.4202 38.5377 31.0731C42.5018 24.3922 46.4659 17.7114 50.4301 11.0305C51.2028 9.72706 52.5577 9.6554 53.4812 10.8424C57.8767 16.4908 62.2764 22.1347 66.6761 27.7786C70.5103 32.6991 74.3446 37.6173 78.1789 42.5356C78.2543 42.6341 78.3381 42.7259 78.5098 42.7931C78.5098 42.5983 78.5098 42.4034 78.5098 42.2086C78.5098 37.4874 78.5077 32.7663 78.5098 28.0451C78.5098 26.7058 79.6532 25.7965 80.8133 26.222C81.4876 26.4706 81.8938 26.9902 81.9818 27.7651C81.9985 27.9107 81.9985 28.0608 81.9985 28.2086C81.9985 34.7775 81.9985 41.3486 81.9985 47.9174C81.9985 49.2903 81.3515 49.9981 80.0762 49.9981C73.8965 50.0025 67.7147 50.0003 61.535 49.9981C60.4356 49.9981 59.6734 49.2187 59.6692 48.1212C59.6671 47.0709 60.4545 46.2735 61.5246 46.2713C66.318 46.2668 71.1113 46.2691 75.9026 46.2668C76.0639 46.2668 76.223 46.2668 76.3843 46.2668C76.401 46.231 76.4157 46.1929 76.4324 46.1571H76.4366Z" fill="#F13535"/>
</svg>
