<svg width="266" height="288" viewBox="0 0 266 288" fill="none" xmlns="http://www.w3.org/2000/svg">
<g opacity="0.8" clip-path="url(#clip0_194_295)">
<path d="M6.10736 152.836H9.7103L9.69817 161.51L11.7605 161.534L11.4087 164.446L9.79522 164.458V165.538L16.2732 165.526L15.8972 169.335L4.72441 169.31L5.27031 165.562H6.03457V164.482H4.84572L5.16113 161.522L6.08309 161.51L6.10736 152.836ZM24.0371 151.66L27.0214 152.788L26.6696 153.952H31.4735L30.9761 157.543L28.3558 157.555L32.5168 168.704L29.302 169.808L25.0319 158.405L20.2644 169.711L17.0011 168.716L21.708 157.507L18.2749 157.495L18.5417 153.952H23.0788L24.0371 151.66ZM25.5778 164.033L27.4339 166.071L24.0007 169.517L22.1326 167.503L25.5778 164.033ZM43.2043 152.667L47.62 165.077C49.1 163.88 50.0584 162.566 50.4951 161.134C50.9318 159.703 51.0976 158.142 50.9925 156.451L49.2213 156.464L49.6217 152.861L54.5348 152.836C54.9957 154.713 55.0726 156.67 54.7653 158.708C54.4579 160.738 53.9646 162.432 53.2853 163.791C52.6059 165.141 51.5869 166.629 50.2282 168.255L48.4813 167.588L49.3063 169.905L45.6063 171.3L39.6256 153.637L43.2043 152.667ZM59.9331 152.679C59.4721 156.933 59.4074 159.783 59.739 161.231C60.0787 162.679 60.6165 163.823 61.3524 164.664C62.0884 165.505 63.7544 165.707 66.3505 165.271L66.3383 152.849L69.8564 153.055V168.947L66.3383 169.298V167.297L65.7075 169.492L64.9433 169.662C62.6707 169.703 60.9521 169.383 59.7875 168.704C58.631 168.025 57.6767 166.646 56.9246 164.567C56.1725 162.489 55.8651 159.488 56.0026 155.566L56.2089 153.322L59.9331 152.679ZM71.215 152.97H83.2127V156.427L76.2858 156.439V158.368L81.7691 158.38L81.3809 161.716H76.2858V165.999L83.4189 165.174L84.438 168.837L71.7973 170.427L71.4091 166.763L72.8406 166.52V161.741H71.3364L71.676 158.623L72.8649 158.611L72.8527 157.204L74.8059 156.488L71.215 156.5V152.97ZM86.4639 152.836H90.0668L90.0547 161.51L92.117 161.534L91.7652 164.446L90.1517 164.458V165.538L96.6297 165.526L96.2537 169.335L85.0809 169.31L85.6268 165.562H86.3911V164.482H85.2022L85.5176 161.522L86.4396 161.51L86.4639 152.836ZM98.0369 152.873H109.052L108.603 156.512H104.685V164.385C104.547 165.606 104.96 166.33 105.922 166.557L105.037 169.978C103.929 170.01 102.99 169.65 102.222 168.898C101.462 168.146 101.07 167.151 101.045 165.914V157.24L102.61 156.488L97.673 156.476L98.0369 152.873ZM116.719 151.66L119.703 152.788L119.351 153.952H124.155L123.658 157.543L121.038 157.555L125.198 168.704L121.984 169.808L117.714 158.405L112.946 169.711L109.683 168.716L114.39 157.507L110.957 157.495L111.223 153.952H115.76L116.719 151.66ZM118.26 164.033L120.116 166.071L116.682 169.517L114.814 167.503L118.26 164.033ZM133.399 152.885H144.099L146.428 152.897V160.273C146.525 161.51 146.404 162.699 146.064 163.839C145.732 164.972 145.085 166.08 144.123 167.163C143.169 168.239 142.113 168.902 140.957 169.153C139.808 169.403 137.16 169.48 133.011 169.383L133.035 165.938L135.34 165.914L133.981 165.234V156.488H132.817L133.399 152.885ZM137.487 156.488V166.011C138.717 166.181 139.776 165.995 140.666 165.453C141.555 164.903 142.15 164.219 142.449 163.403C142.748 162.578 142.841 160.273 142.728 156.488H137.487ZM147.762 152.97H159.76V156.427L152.833 156.439V158.368L158.316 158.38L157.928 161.716H152.833V165.999L159.966 165.174L160.985 168.837L148.345 170.427L147.956 166.763L149.388 166.52V161.741H147.884L148.223 158.623L149.412 158.611L149.4 157.204L151.353 156.488L147.762 156.5V152.97ZM163.011 152.836H166.614L166.602 161.51L168.664 161.534L168.312 164.446L166.699 164.458V165.538L173.177 165.526L172.801 169.335L161.628 169.31L162.174 165.562H162.938V164.482H161.75L162.065 161.522L162.987 161.51L163.011 152.836ZM191.835 152.909C193.986 153.419 195.126 155.016 195.256 157.701H192.041C192.009 156.852 191.463 156.468 190.403 156.549H186.085C185.195 158.473 184.726 159.929 184.677 160.916C184.637 161.902 184.892 162.832 185.442 163.706C186 164.571 186.602 165.19 187.249 165.562C187.904 165.926 188.802 166.051 189.942 165.938C191.083 165.825 192.138 165.089 193.108 163.73L195.28 166.435C194.018 167.657 192.995 168.473 192.211 168.886C191.426 169.29 190.387 169.5 189.093 169.517C187.807 169.533 186.63 169.282 185.563 168.765C184.495 168.247 183.517 167.289 182.627 165.889C181.738 164.482 181.341 162.881 181.438 161.086C181.535 159.29 181.77 158.138 182.142 157.628L184.556 156.549H181.669L181.863 155.396L182.142 154.292L182.676 152.909H191.835ZM199.938 152.836V154.426L200.885 152.836H208.891C209.878 153.111 210.343 154.502 210.286 157.009V167.94C210.092 168.829 209.336 169.294 208.018 169.335H198.762C197.387 169.391 196.59 168.793 196.372 167.539V153.576L199.938 152.836ZM199.938 156.415V165.756H206.707V156.415H199.938ZM213.598 152.909L218.208 161.947C219.049 161.098 219.631 159.965 219.955 158.55C220.286 157.127 220.375 155.408 220.222 153.394L223.594 153.528C223.554 157.814 223.093 160.811 222.211 162.517C221.338 164.215 220.258 165.744 218.972 167.103C217.694 168.453 216.154 169.703 214.35 170.851L212.906 167.43L216.024 164.883L210.965 155.141L213.598 152.909ZM228.228 152.836V154.426L229.174 152.836H237.181C238.167 153.111 238.633 154.502 238.576 157.009V167.94C238.382 168.829 237.626 169.294 236.307 169.335H227.051C225.676 169.391 224.88 168.793 224.662 167.539V153.576L228.228 152.836ZM228.228 156.415V165.756H234.997V156.415H228.228ZM240.068 152.873H251.083L250.634 156.512H246.716V164.385C246.578 165.606 246.991 166.33 247.953 166.557L247.068 169.978C245.96 170.01 245.022 169.65 244.253 168.898C243.493 168.146 243.101 167.151 243.077 165.914V157.24L244.641 156.488L239.704 156.476L240.068 152.873ZM252.26 152.97H264.257V156.427L257.331 156.439V158.368L262.814 158.38L262.426 161.716H257.331V165.999L264.464 165.174L265.483 168.837L252.842 170.427L252.454 166.763L253.885 166.52V161.741H252.381L252.721 158.623L253.91 158.611L253.897 157.204L255.851 156.488L252.26 156.5V152.97Z" fill="white"/>
<path d="M93.3812 207.62C99.7443 212.317 106.95 215.286 114.475 217.45C125.851 220.719 137.211 223.973 147.754 229.523C149.032 230.196 150.335 230.835 151.623 231.489C148.742 226.738 144.591 223.499 139.637 221.567C133.875 219.32 127.909 217.6 122.02 215.678C119.366 214.811 116.689 214.017 113.919 213.155C120.224 203.838 126.466 194.613 132.708 185.388H128.141C122.451 193.949 116.708 202.477 110.887 211.165C104.137 207.363 98.3642 202.472 93.6136 196.095C98.5482 192.521 103.463 188.957 108.388 185.388H102.253C99.1874 187.639 96.1221 189.886 93.0567 192.133C92.6693 192.414 92.2625 192.676 91.7105 193.049C90.2335 190.545 89.0132 187.993 88.0253 185.383H77.4055C80.1367 194.346 85.4975 201.794 93.386 207.62H93.3812Z" fill="white"/>
<path d="M15.8616 92.1777C7.61465 106.478 2.94156 121.824 0.873779 137.906H49.532C56.9896 128.134 66.3793 120.226 78.5148 114.914C72.1371 114.555 65.7353 114.362 59.4496 115.65C53.1785 116.933 46.9945 118.662 40.1422 120.352C43.8371 116.57 47.0574 112.894 50.6748 109.65C61.4641 99.9743 74.2146 95.1172 88.6794 94.2988C100.234 93.645 111.386 95.6305 122.384 98.7394C135.856 102.551 149.25 106.628 162.664 110.652C163.337 110.856 164.185 111.524 164.369 112.148C166.03 117.795 169.158 120.492 175.115 121.01C172.32 124.158 168.911 125.955 165.1 127.01C158.805 128.759 152.543 127.659 146.316 126.531C136.369 124.73 126.481 122.594 116.5 121.035C109.357 119.916 102.108 119.49 94.8682 120.487C93.9965 120.608 93.1442 120.831 92.2145 121.393C96.8343 122.686 101.454 123.974 106.074 125.267C91.3767 126.381 77.895 130.153 66.3212 137.906H84.4906C86.1322 136.555 87.8223 135.248 89.4494 133.877C89.5607 134.013 89.677 134.148 89.7883 134.289C88.7714 135.403 87.6721 136.449 86.752 137.635C86.6794 137.727 86.6165 137.819 86.5438 137.906H98.3452C105.168 132.516 113.754 130.686 123.008 131.572C131.207 132.357 139.304 134.221 147.444 135.611C152.771 136.516 158.151 137.097 163.473 136.042C178.01 133.146 186.519 123.272 189.066 107.984C187.429 107.35 185.759 106.686 184.073 106.057C169.376 100.57 154.684 95.0736 139.972 89.6354C138.819 89.2092 138.296 88.5458 137.938 87.4078C134.834 77.6306 129.444 69.2675 122.006 62.2409C119.686 60.0521 117.188 58.0521 114.771 55.9649C123.338 38.2895 125.125 19.9749 120.442 0.619141C103.609 8.91447 88.8586 19.3212 75.8901 32.4542C86.7472 41.4566 94.9166 51.5388 91.4639 67.2772C87.4784 50.0473 79.2606 41.5292 70.0839 34.2315C62.5343 28.2315 54.2002 23.4325 45.5369 19.2146C43.0478 18.004 40.5248 16.8708 37.7887 15.5972C34.1907 23.4955 31.9728 31.4373 31.382 39.7278C30.7476 48.6284 31.4159 57.4565 34.273 66.0181C34.4474 66.5363 34.2198 67.4564 33.8372 67.8583C26.8542 75.2335 20.9559 83.3836 15.8858 92.1777H15.8616ZM176.805 105.558C180.073 106.396 183.347 107.219 186.538 108.454H166.63C169.618 105.848 172.916 104.565 176.805 105.558ZM118.021 87.9695C118.074 88.5651 118.122 89.1559 118.176 89.8194C110.548 90.9235 104.989 86.8751 99.3185 82.2601C102.553 80.6911 105.619 79.4756 109.009 79.495C114.156 79.5241 117.561 82.7637 118.025 87.9647L118.021 87.9695ZM114.04 14.3236C114.311 27.5003 112.481 39.7811 106.718 51.3258C102.917 49.4565 99.2459 47.6551 95.3234 45.7277C99.4735 34.183 105.328 23.6892 114.04 14.3236ZM43.7984 26.9724C44.147 27.0693 44.5732 27.108 44.9219 27.2872C55.2947 32.5462 65.0573 38.6721 72.6069 47.7229C76.6311 52.5509 79.9627 57.8245 80.5923 64.2942C81.1928 70.4878 80.6165 76.4975 77.0959 81.8969C76.8683 82.2407 76.6456 82.5846 76.1226 83.3788C75.8659 81.6887 75.6674 80.4538 75.4979 79.219C74.5875 72.6137 71.9967 66.5944 69.096 60.6719C66.8394 56.0618 64.5779 51.4517 62.5101 46.7544C61.8273 45.2096 61.745 43.3985 61.2462 41.0159C60.3697 42.2508 59.7401 43.137 59.1009 44.0377C56.6603 41.3597 54.5876 38.8513 52.2632 36.6043C49.7887 34.2169 47.1446 31.9845 44.4328 29.8731C43.2948 28.9869 42.9558 28.2654 43.7935 26.9773L43.7984 26.9724Z" fill="white"/>
<path d="M144.281 197.262C143.013 203.068 141.792 208.884 140.528 214.69C140.32 215.649 140.325 216.332 141.56 216.477C142.126 216.545 142.654 216.898 143.303 217.165C143.618 216.002 143.942 214.971 144.175 213.915C146.267 204.404 148.354 194.894 150.446 185.383H146.872C146.005 189.344 145.139 193.3 144.277 197.262H144.281Z" fill="white"/>
<path d="M119.948 137.906H123.381C122.267 137.64 121.134 137.374 119.948 137.088V137.906Z" fill="white"/>
<path d="M156.553 39.6562V87.1135C157.831 87.2249 158.887 87.312 160.18 87.4234V40.1986C174.611 42.833 187.797 47.9613 200.044 55.5641C193.25 68.1354 186.514 80.6002 179.739 93.1328C180.984 93.8011 181.817 94.2466 182.882 94.818C189.633 82.4404 196.34 70.15 203.139 57.69C211.831 63.5011 219.371 70.1742 225.879 78.116C215.187 86.9973 204.649 95.7526 194.044 104.561C194.834 105.709 195.434 106.581 196.131 107.598C206.906 98.6727 217.507 89.8931 228.18 81.0554C234.814 89.0118 239.952 97.5977 243.821 107.176C225.671 114.329 207.773 121.389 189.676 128.522C189.996 129.593 190.315 130.653 190.708 131.956C208.901 124.789 226.882 117.709 245.109 110.527C248.814 119.249 250.954 128.358 252.039 137.907H266.005C265.327 131.079 264.203 124.334 262.329 117.719C252.751 83.8835 232.698 58.213 202.049 40.9686C187.734 32.9154 172.272 28.16 155.972 26.2326C151.362 25.6903 146.708 25.4869 142.069 25.3174C138.001 25.1673 133.919 25.2883 129.88 25.2883C129.251 29.8161 128.665 34.034 128.059 38.3826C137.527 37.8354 146.97 37.9081 156.563 39.6611L156.553 39.6562Z" fill="white"/>
<path d="M160.18 234.806V185.383H156.509C156.524 200.535 156.538 215.688 156.558 230.845C156.558 233.092 157.765 234.412 160.18 234.806Z" fill="white"/>
<path d="M207.327 266.86C216.044 263.281 226.228 256.618 228.15 253.867C206.204 263.083 184.441 261.325 162.282 253.495C166.94 252.255 171.085 251.156 175.231 250.052C175.197 249.863 175.163 249.679 175.129 249.49C174.863 249.364 174.611 249.204 174.335 249.122C170.296 247.93 166.185 246.943 162.228 245.524C152.451 242.018 142.848 237.994 132.979 234.783C124.006 231.863 114.703 229.965 105.667 227.214C94.3256 223.766 84.1465 218.212 76.3209 209.025C70.2048 201.844 66.4033 193.955 65.0474 185.379H35.2898C34.1179 191.582 33.6966 198.076 34.0356 204.851C31.1784 199.786 29.5029 192.851 28.9073 185.379H4.2876C9.20281 204.1 18.4134 220.56 31.1203 235.151C44.8587 250.928 61.3332 262.947 80.655 271.025C83.9625 272.405 87.3136 273.688 90.6453 275.015C89.6671 275.238 88.7276 275.199 87.7833 275.243C73.5946 275.882 59.401 276.521 45.2171 277.209C44.0355 277.267 42.8733 277.703 41.8079 277.945C41.8079 277.959 41.803 277.969 41.7982 277.974C41.8079 277.94 41.8515 277.799 41.8902 277.664C39.3818 277.93 36.8733 278.182 34.3745 278.502C34.2147 278.521 34.1276 279.088 34.0017 279.402H36.0355C35.1978 279.824 34.6506 280.105 34.2002 280.327C34.5392 281.044 34.7861 281.562 35.0186 282.046C37.1493 281.223 39.1832 283.77 41.5319 281.954C41.2752 282.531 41.159 282.792 41.0282 283.088C41.6965 283.223 42.3551 283.393 43.0282 283.494C45.7255 283.901 48.4132 284.381 51.125 284.657C53.6286 284.913 56.1564 284.957 58.6746 285.088C69.4009 285.644 80.1224 286.298 90.8487 286.72C98.7614 287.029 106.689 287.16 114.611 287.155C133.129 287.146 151.647 287.01 170.16 286.908C173.85 286.889 177.55 286.918 181.231 286.72C191.875 286.153 202.514 285.485 213.158 284.85C216.518 284.652 219.884 284.506 223.23 284.187C225.84 283.935 228.417 283.354 231.027 283.112C232.174 283.005 232.911 283.063 232.804 281.523C232.727 280.361 233.225 279.407 234.634 280.594C234.77 280.71 235.438 280.492 235.55 280.274C235.802 279.775 235.864 279.175 236.005 278.594C218.698 276.526 201.443 275.756 184.412 275.18C191.962 272.463 199.763 269.959 207.318 266.86H207.327Z" fill="white"/>
<path d="M246.877 185.383C245.816 192.346 234.979 212.201 228.649 218.637C217.802 207.547 206.955 196.463 196.117 185.383H191.042C202.795 197.407 214.557 209.446 226.388 221.552C218.49 229.973 209.763 237.072 199.429 242.719C191.144 223.567 182.887 204.482 174.626 185.383H170.771C179.27 204.971 187.763 224.583 196.301 244.288C192.989 245.794 189.768 247.256 186.161 248.898C193.449 250.414 200.282 251.542 207.265 250.52C211.139 249.954 215.013 249.503 218.398 247.126C228.296 240.162 236.819 231.78 243.821 221.968C252.073 210.404 258.097 198.206 261.889 185.388H246.882L246.877 185.383Z" fill="white"/>
</g>
<defs>
<clipPath id="clip0_194_295">
<rect width="265.126" height="286.55" fill="white" transform="translate(0.873779 0.609375)"/>
</clipPath>
</defs>
</svg>
