<?xml version="1.0" encoding="UTF-8"?>
<svg id="Capa_2" data-name="Capa 2" xmlns="http://www.w3.org/2000/svg" viewBox="0 0 547.49 591.73">
  <defs>
    <style>
      .cls-1 {
        font-family: GangofThree, 'Gang of Three';
        font-size: 50px;
      }

      .cls-1, .cls-2 {
        fill: #f13535;
      }

      .cls-2 {
        stroke-width: 0px;
      }
    </style>
  </defs>
  <g id="Capa_1-2" data-name="Capa 1">
    <g>
      <text class="cls-1" transform="translate(18.33 350.34)"><tspan x="0" y="0">La Vuelta del Coyote</tspan></text>
      <g>
        <path class="cls-2" d="m191.03,427.48c13.14,9.7,28.02,15.83,43.56,20.3,23.49,6.75,46.95,13.47,68.72,24.93,2.64,1.39,5.33,2.71,7.99,4.06-5.95-9.81-14.52-16.5-24.75-20.49-11.9-4.64-24.22-8.19-36.38-12.16-5.48-1.79-11.01-3.43-16.73-5.21,13.02-19.24,25.91-38.29,38.8-57.34h-9.43c-11.75,17.68-23.61,35.29-35.63,53.23-13.94-7.85-25.86-17.95-35.67-31.12,10.19-7.38,20.34-14.74,30.51-22.11h-12.67c-6.33,4.65-12.66,9.29-18.99,13.93-.8.58-1.64,1.12-2.78,1.89-3.05-5.17-5.57-10.44-7.61-15.83h-21.93c5.64,18.51,16.71,33.89,33,45.92Z"/>
        <path class="cls-2" d="m30.95,189.09C13.92,218.62,4.27,250.31,0,283.52h100.48c15.4-20.18,34.79-36.51,59.85-47.48-13.17-.74-26.39-1.14-39.37,1.52-12.95,2.65-25.72,6.22-39.87,9.71,7.63-7.81,14.28-15.4,21.75-22.1,22.28-19.98,48.61-30.01,78.48-31.7,23.86-1.35,46.89,2.75,69.6,9.17,27.82,7.87,55.48,16.29,83.18,24.6,1.39.42,3.14,1.8,3.52,3.09,3.43,11.66,9.89,17.23,22.19,18.3-5.77,6.5-12.81,10.21-20.68,12.39-13,3.61-25.93,1.34-38.79-.99-20.54-3.72-40.96-8.13-61.57-11.35-14.75-2.31-29.72-3.19-44.67-1.13-1.8.25-3.56.71-5.48,1.87,9.54,2.67,19.08,5.33,28.62,8-30.35,2.3-58.19,10.09-82.09,26.1h37.52c3.39-2.79,6.88-5.49,10.24-8.32.23.28.47.56.7.85-2.1,2.3-4.37,4.46-6.27,6.91-.15.19-.28.38-.43.56h24.37c14.09-11.13,31.82-14.91,50.93-13.08,16.93,1.62,33.65,5.47,50.46,8.34,11,1.87,22.11,3.07,33.1.89,30.02-5.98,47.59-26.37,52.85-57.94-3.38-1.31-6.83-2.68-10.31-3.98-30.35-11.33-60.69-22.68-91.07-33.91-2.38-.88-3.46-2.25-4.2-4.6-6.41-20.19-17.54-37.46-32.9-51.97-4.79-4.52-9.95-8.65-14.94-12.96,17.69-36.5,21.38-74.32,11.71-114.29-34.76,17.13-65.22,38.62-92,65.74,22.42,18.59,39.29,39.41,32.16,71.91-8.23-35.58-25.2-53.17-44.15-68.24-15.59-12.39-32.8-22.3-50.69-31.01-5.14-2.5-10.35-4.84-16-7.47-7.43,16.31-12.01,32.71-13.23,49.83-1.31,18.38.07,36.61,5.97,54.29.36,1.07-.11,2.97-.9,3.8-14.42,15.23-26.6,32.06-37.07,50.22Zm332.35,27.63c6.75,1.73,13.51,3.43,20.1,5.98h-41.11c6.17-5.38,12.98-8.03,21.01-5.98Zm-121.39-36.32c.11,1.23.21,2.45.32,3.82-15.75,2.28-27.23-6.08-38.94-15.61,6.68-3.24,13.01-5.75,20.01-5.71,10.63.06,17.66,6.75,18.62,17.49Zm-8.22-152.08c.56,27.21-3.22,52.57-15.12,76.41-7.85-3.86-15.43-7.58-23.53-11.56,8.57-23.84,20.66-45.51,38.65-64.85Zm-145.05,26.12c.72.2,1.6.28,2.32.65,21.42,10.86,41.58,23.51,57.17,42.2,8.31,9.97,15.19,20.86,16.49,34.22,1.24,12.79.05,25.2-7.22,36.35-.47.71-.93,1.42-2.01,3.06-.53-3.49-.94-6.04-1.29-8.59-1.88-13.64-7.23-26.07-13.22-38.3-4.66-9.52-9.33-19.04-13.6-28.74-1.41-3.19-1.58-6.93-2.61-11.85-1.81,2.55-3.11,4.38-4.43,6.24-5.04-5.53-9.32-10.71-14.12-15.35-5.11-4.93-10.57-9.54-16.17-13.9-2.35-1.83-3.05-3.32-1.32-5.98Z"/>
        <path class="cls-2" d="m296.14,406.09c-2.62,11.99-5.14,24-7.75,35.99-.43,1.98-.42,3.39,2.13,3.69,1.17.14,2.26.87,3.6,1.42.65-2.4,1.32-4.53,1.8-6.71,4.32-19.64,8.63-39.28,12.95-58.92h-7.38c-1.79,8.18-3.58,16.35-5.36,24.53Z"/>
        <path class="cls-2" d="m245.89,283.52h7.09c-2.3-.55-4.64-1.1-7.09-1.69v1.69Z"/>
        <path class="cls-2" d="m321.48,80.63v98c2.64.23,4.82.41,7.49.64v-97.52c29.8,5.44,57.03,16.03,82.32,31.73-14.03,25.96-27.94,51.7-41.93,77.58,2.57,1.38,4.29,2.3,6.49,3.48,13.94-25.56,27.79-50.94,41.83-76.67,17.95,12,33.52,25.78,46.96,42.18-22.08,18.34-43.84,36.42-65.74,54.61,1.63,2.37,2.87,4.17,4.31,6.27,22.25-18.43,44.14-36.56,66.18-54.81,13.7,16.43,24.31,34.16,32.3,53.94-37.48,14.77-74.44,29.35-111.81,44.08.66,2.21,1.32,4.4,2.13,7.09,37.57-14.8,74.7-29.42,112.34-44.25,7.65,18.01,12.07,36.82,14.31,56.54h28.84c-1.4-14.1-3.72-28.03-7.59-41.69-19.78-69.87-61.19-122.88-124.48-158.49-29.56-16.63-61.49-26.45-95.15-30.43-9.52-1.12-19.13-1.54-28.71-1.89-8.4-.31-16.83-.06-25.17-.06-1.3,9.35-2.51,18.06-3.76,27.04,19.55-1.13,39.05-.98,58.86,2.64Z"/>
        <path class="cls-2" d="m328.97,483.62v-102.06h-7.58c.03,31.29.06,62.58.1,93.88q0,6.96,7.48,8.18Z"/>
        <path class="cls-2" d="m426.33,549.81c18-7.39,39.03-21.15,43-26.83-45.32,19.03-90.26,15.4-136.02-.77,9.62-2.56,18.18-4.83,26.74-7.11-.07-.39-.14-.77-.21-1.16-.55-.26-1.07-.59-1.64-.76-8.34-2.46-16.83-4.5-25-7.43-20.19-7.24-40.02-15.55-60.4-22.18-18.53-6.03-37.74-9.95-56.4-15.63-23.42-7.12-44.44-18.59-60.6-37.56-12.63-14.83-20.48-31.12-23.28-48.83h-61.45c-2.42,12.81-3.29,26.22-2.59,40.21-5.9-10.46-9.36-24.78-10.59-40.21H7.05c10.15,38.66,29.17,72.65,55.41,102.78,28.37,32.58,62.39,57.4,102.29,74.08,6.83,2.85,13.75,5.5,20.63,8.24-2.02.46-3.96.38-5.91.47-29.3,1.32-58.61,2.64-87.9,4.06-2.44.12-4.84,1.02-7.04,1.52,0,.03-.01.05-.02.06.02-.07.11-.36.19-.64-5.18.55-10.36,1.07-15.52,1.73-.33.04-.51,1.21-.77,1.86h4.2c-1.73.87-2.86,1.45-3.79,1.91.7,1.48,1.21,2.55,1.69,3.55,4.4-1.7,8.6,3.56,13.45-.19-.53,1.19-.77,1.73-1.04,2.34,1.38.28,2.74.63,4.13.84,5.57.84,11.12,1.83,16.72,2.4,5.17.53,10.39.62,15.59.89,22.15,1.15,44.29,2.5,66.44,3.37,16.34.64,32.71.91,49.07.9,38.24-.02,76.48-.3,114.71-.51,7.62-.04,15.26.02,22.86-.39,21.98-1.17,43.95-2.55,65.93-3.86,6.94-.41,13.89-.71,20.8-1.37,5.39-.52,10.71-1.72,16.1-2.22,2.37-.22,3.89-.1,3.67-3.28-.16-2.4.87-4.37,3.78-1.92.28.24,1.66-.21,1.89-.66.52-1.03.65-2.27.94-3.47-35.74-4.27-71.37-5.86-106.54-7.05,15.59-5.61,31.7-10.78,47.3-17.18Z"/>
        <path class="cls-2" d="m508,381.56c-2.19,14.38-24.57,55.38-37.64,68.67-22.4-22.9-44.8-45.79-67.18-68.67h-10.48c24.27,24.83,48.56,49.69,72.99,74.69-16.31,17.39-34.33,32.05-55.67,43.71-17.11-39.55-34.16-78.96-51.22-118.4h-7.96c17.55,40.45,35.09,80.95,52.72,121.64-6.84,3.11-13.49,6.13-20.94,9.52,15.05,3.13,29.16,5.46,43.58,3.35,8-1.17,16-2.1,22.99-7.01,20.44-14.38,38.04-31.69,52.5-51.95,17.04-23.88,29.48-49.07,37.31-75.54h-30.99Z"/>
      </g>
    </g>
  </g>
</svg>