<svg width="101" height="60" viewBox="0 0 101 60" fill="none" xmlns="http://www.w3.org/2000/svg">
<path d="M30 31.1748C30 30.3932 30 29.6126 30 28.831C30.0245 28.693 30.0519 28.5551 30.0724 28.4162C30.1976 27.5554 30.269 26.6828 30.453 25.8346C31.4968 21.0325 33.9642 17.0971 37.8765 14.134C42.7437 10.448 48.2253 9.22618 54.2019 10.4715C58.986 11.4683 62.8758 13.9755 65.8509 17.8425C69.0637 22.0176 70.4001 26.7718 69.8973 32.0044C69.4903 36.244 67.8438 39.9877 65.0183 43.1827C61.92 46.6857 58.0614 48.8681 53.4496 49.6889C52.6973 49.8229 51.9332 49.8982 51.175 50H48.8309C48.7301 49.9775 48.6313 49.9432 48.5296 49.9354C45.4009 49.7143 42.4737 48.8202 39.8029 47.1836C34.6207 44.0093 31.4303 39.4321 30.3111 33.4433C30.1712 32.694 30.1017 31.932 30 31.1748ZM50.0068 13.1127C40.6912 13.1059 33.1258 20.6598 33.1062 29.9882C33.0866 39.2903 40.6423 46.8618 49.9765 46.8941C59.2883 46.9264 66.9026 39.3235 66.8967 29.999C66.8909 20.6774 59.3313 13.1196 50.0068 13.1127Z" fill="#F13535"/>
<path d="M48.4464 25.4591C48.4464 23.9496 48.4356 22.4393 48.4503 20.9298C48.4611 19.7481 49.504 18.9939 50.5518 19.3891C51.1896 19.6288 51.5555 20.205 51.5565 20.9983C51.5594 23.6405 51.5643 26.2827 51.5497 28.9249C51.5477 29.2487 51.6514 29.4375 51.9077 29.6273C53.6237 30.8961 55.329 32.1805 57.0322 33.4659C57.6417 33.9257 57.8677 34.5371 57.6906 35.169C57.3893 36.2421 56.1811 36.6638 55.2536 35.9946C54.2724 35.2864 53.3136 34.5469 52.345 33.821C51.3149 33.0482 50.2935 32.2617 49.2506 31.5055C48.6822 31.0937 48.4366 30.5625 48.4425 29.8719C48.4552 28.4016 48.4464 26.9303 48.4464 25.4591Z" fill="#F13535"/>
</svg>
