<svg width="101" height="61" viewBox="0 0 101 61" fill="none" xmlns="http://www.w3.org/2000/svg">
<path d="M52.0822 50.9995H48.9422C48.8782 50.6107 48.8125 50.2248 48.7516 49.839C48.3939 47.5442 48.0362 45.2495 47.6815 42.9533C47.6612 42.8242 47.6534 42.6921 47.6534 42.5615C47.6534 38.6074 47.6534 34.6532 47.6534 30.6976C47.6534 30.3147 47.6487 30.3279 47.2738 30.2032C43.0466 28.8049 40.3987 26.0773 39.6489 21.9046C38.7241 16.759 42.2171 11.7514 47.5738 10.3707C53.5287 8.83456 59.7446 12.2165 61.1709 17.8492C62.7065 23.9088 58.6355 28.8592 53.6178 30.2369C53.4116 30.2941 53.3538 30.3778 53.3553 30.5744C53.3616 34.2087 53.3428 37.843 53.371 41.4773C53.3788 42.5836 53.2382 43.6664 53.0648 44.7536C52.7539 46.7064 52.4524 48.6623 52.1462 50.6151C52.1275 50.7369 52.1056 50.8572 52.0822 50.9981V50.9995ZM50.4231 49.4017C50.4544 49.4179 50.4856 49.4325 50.5169 49.4487C50.5544 49.3739 50.6106 49.302 50.6247 49.2242C50.8855 47.6616 51.1449 46.099 51.3964 44.535C51.501 43.8791 51.6651 43.2203 51.6698 42.563C51.6963 38.6661 51.6823 34.7691 51.6823 30.8722C51.6823 30.7856 51.6823 30.6991 51.6823 30.6272H49.3328V30.8575C49.3328 34.7633 49.3328 38.6675 49.3328 42.5733C49.3328 42.6628 49.3406 42.7538 49.3546 42.8418C49.4796 43.6282 49.6077 44.4132 49.7358 45.1996C49.9639 46.6008 50.1935 48.0005 50.4231 49.4017ZM42.4951 19.8813C42.4686 20.6251 43.0372 21.0756 43.6965 20.9201C44.1635 20.81 44.4119 20.4799 44.4807 20.0573C44.6447 19.0567 45.029 18.1338 45.5429 17.252C45.6179 17.1244 45.6835 16.9864 45.721 16.8456C45.8819 16.2455 45.3055 15.6014 44.6634 15.6601C44.3354 15.6894 44.1089 15.8757 43.9183 16.112C42.9966 17.2579 42.692 18.6048 42.4951 19.8827V19.8813ZM49.2546 13.9772C49.25 13.2949 48.597 12.8577 47.9143 13.1159C47.4644 13.2861 47.0286 13.5003 46.6146 13.738C46.135 14.0109 46.0444 14.4701 46.3193 14.9558C46.5849 15.4238 46.9989 15.5808 47.5206 15.3696C47.9424 15.1979 48.3517 14.9939 48.7532 14.7841C49.0812 14.6125 49.25 14.3352 49.2562 13.9772H49.2546Z" fill="#F13535"/>
</svg>
