<svg width="50" height="50" viewBox="0 0 50 50" fill="none" xmlns="http://www.w3.org/2000/svg">
<path d="M25 0C20.4437 0 16.25 1.11042 12.4167 3.33333C8.63692 5.50199 5.50199 8.63692 3.33333 12.4167C1.11042 16.25 0 20.4437 0 25C0 29.5562 1.11042 33.75 3.33333 37.5833C5.50199 41.3631 8.63692 44.498 12.4167 46.6667C16.25 48.8896 20.4437 50 25 50C29.5562 50 33.75 48.8896 37.5833 46.6667C41.3631 44.498 44.498 41.3631 46.6667 37.5833C48.8896 33.75 50 29.5562 50 25C50 20.4437 48.8896 16.25 46.6667 12.4167C44.498 8.63692 41.3631 5.50199 37.5833 3.33333C33.75 1.11042 29.5562 0 25 0ZM37.5 19.3333V20.1667C37.5 23.0562 36.8062 25.8333 35.4167 28.5C34.0463 31.1464 32.0063 33.3875 29.5 35C26.7229 36.7771 23.6104 37.6667 20.1667 37.6667C16.8118 37.6918 13.5184 36.7673 10.6667 35H12.1667C15.0562 35 17.6104 34.1104 19.8333 32.3333C18.5 32.3333 17.3062 31.9167 16.25 31.0833C15.1937 30.25 14.4437 29.1667 14 27.8333L15.1667 28.1667C15.9437 28.1667 16.5 28.0562 16.8333 27.8333C15.4151 27.6265 14.1314 26.8802 13.25 25.75C12.3305 24.6524 11.8287 23.2651 11.8333 21.8333C12.7229 22.3896 13.6667 22.6667 14.6667 22.6667C12.7771 21.5562 11.8333 19.8333 11.8333 17.5C11.8333 16.3896 12.1104 15.3333 12.6667 14.3333C14.3333 16.3333 16.25 17.8896 18.4167 19C20.6161 20.1197 23.0335 20.7454 25.5 20.8333C25.2771 20.5 25.1667 20 25.1667 19.3333C25.1667 17.6667 25.7771 16.2229 27 15C28.2229 13.7771 29.6667 13.1667 31.3333 13.1667C33 13.1667 34.5563 13.7771 36 15C37 14.7771 38.3333 14.2771 40 13.5C39.5563 15.0562 38.6667 16.1667 37.3333 16.8333H37.5C39.0562 16.5 40.1667 16.1667 40.8333 15.8333C39.7229 17.2771 38.6104 18.4437 37.5 19.3333Z" fill="white"/>
</svg>
